<svg width="14" height="14" viewBox="0 0 14 14" fill="none" xmlns="http://www.w3.org/2000/svg">
<path d="M8.40799 7.00019L12.708 2.71019C12.8963 2.52188 13.0021 2.26649 13.0021 2.00019C13.0021 1.73388 12.8963 1.47849 12.708 1.29019C12.5197 1.10188 12.2643 0.996094 11.998 0.996094C11.7317 0.996094 11.4763 1.10188 11.288 1.29019L6.99799 5.59019L2.70799 1.29019C2.51968 1.10188 2.26429 0.996094 1.99799 0.996094C1.73168 0.996094 1.47629 1.10188 1.28799 1.29019C1.09968 1.47849 0.993894 1.73388 0.993894 2.00019C0.993894 2.26649 1.09968 2.52188 1.28799 2.71019L5.58799 7.00019L1.28799 11.2902C1.19426 11.3831 1.11986 11.4937 1.06909 11.6156C1.01833 11.7375 0.992188 11.8682 0.992188 12.0002C0.992188 12.1322 1.01833 12.2629 1.06909 12.3848C1.11986 12.5066 1.19426 12.6172 1.28799 12.7102C1.38095 12.8039 1.49155 12.8783 1.61341 12.9291C1.73527 12.9798 1.86597 13.006 1.99799 13.006C2.13 13.006 2.2607 12.9798 2.38256 12.9291C2.50442 12.8783 2.61502 12.8039 2.70799 12.7102L6.99799 8.41019L11.288 12.7102C11.3809 12.8039 11.4915 12.8783 11.6134 12.9291C11.7353 12.9798 11.866 13.006 11.998 13.006C12.13 13.006 12.2607 12.9798 12.3826 12.9291C12.5044 12.8783 12.615 12.8039 12.708 12.7102C12.8017 12.6172 12.8761 12.5066 12.9269 12.3848C12.9776 12.2629 13.0038 12.1322 13.0038 12.0002C13.0038 11.8682 12.9776 11.7375 12.9269 11.6156C12.8761 11.4937 12.8017 11.3831 12.708 11.2902L8.40799 7.00019Z" fill="#8E97A3"/>
</svg>
