<svg width="5" height="8" viewBox="0 0 5 8" fill="none" xmlns="http://www.w3.org/2000/svg">
<path d="M3.57398 7.33346C3.48418 7.33311 3.39537 7.31463 3.31289 7.27912C3.2304 7.2436 3.15595 7.19179 3.09398 7.12679L0.52065 4.46012C0.398498 4.3355 0.330078 4.16796 0.330078 3.99346C0.330078 3.81895 0.398498 3.65141 0.52065 3.52679L3.18732 0.860124C3.24947 0.797965 3.32327 0.748658 3.40448 0.715017C3.4857 0.681377 3.57274 0.664063 3.66065 0.664062C3.74856 0.664062 3.8356 0.681377 3.91682 0.715017C3.99803 0.748658 4.07182 0.797965 4.13398 0.860124C4.19614 0.922283 4.24545 0.996076 4.27909 1.07729C4.31273 1.15851 4.33004 1.24555 4.33004 1.33346C4.33004 1.42136 4.31273 1.50841 4.27909 1.58962C4.24545 1.67084 4.19614 1.74463 4.13398 1.80679L1.93398 4.00012L4.05398 6.20012C4.17815 6.32503 4.24784 6.494 4.24784 6.67012C4.24784 6.84625 4.17815 7.01521 4.05398 7.14012C3.9909 7.20271 3.91594 7.25206 3.83351 7.28526C3.75108 7.31846 3.66284 7.33485 3.57398 7.33346Z" fill="#8E97A3"/>
</svg>
