<svg width="5" height="8" viewBox="0 0 5 8" fill="none" xmlns="http://www.w3.org/2000/svg">
<path d="M1.00061 7.33345C0.912873 7.33396 0.825898 7.31714 0.744673 7.28396C0.663448 7.25079 0.58957 7.2019 0.527277 7.14011C0.464791 7.07814 0.415195 7.00441 0.38135 6.92317C0.347504 6.84193 0.330078 6.75479 0.330078 6.66678C0.330078 6.57877 0.347504 6.49164 0.38135 6.4104C0.415195 6.32916 0.464791 6.25542 0.527277 6.19345L2.73394 4.00011L0.613944 1.79345C0.489776 1.66854 0.420082 1.49957 0.420082 1.32345C0.420082 1.14732 0.489776 0.978357 0.613944 0.853449C0.675919 0.790963 0.749653 0.741367 0.830893 0.707521C0.912132 0.673675 0.999269 0.65625 1.08728 0.65625C1.17529 0.65625 1.26242 0.673675 1.34366 0.707521C1.4249 0.741367 1.49864 0.790963 1.56061 0.853449L4.13394 3.52011C4.2561 3.64473 4.32452 3.81228 4.32452 3.98678C4.32452 4.16128 4.2561 4.32883 4.13394 4.45345L1.46728 7.12011C1.40744 7.18474 1.33539 7.23686 1.25529 7.27348C1.17519 7.31009 1.08863 7.33048 1.00061 7.33345Z" fill="#8E97A3"/>
</svg>
