<svg width="18" height="18" viewBox="0 0 18 18" fill="none" xmlns="http://www.w3.org/2000/svg">
<path d="M9.00008 0.666992C7.35191 0.666992 5.74074 1.15573 4.37033 2.07141C2.99992 2.98709 1.93182 4.28858 1.30109 5.8113C0.670359 7.33401 0.505331 9.00957 0.826874 10.6261C1.14842 12.2426 1.94209 13.7274 3.10753 14.8929C4.27297 16.0583 5.75782 16.852 7.37433 17.1735C8.99084 17.4951 10.6664 17.3301 12.1891 16.6993C13.7118 16.0686 15.0133 15.0005 15.929 13.6301C16.8447 12.2597 17.3334 10.6485 17.3334 9.00033C17.3334 7.90598 17.1179 6.82234 16.6991 5.8113C16.2803 4.80025 15.6665 3.88159 14.8926 3.10777C14.1188 2.33395 13.2002 1.72012 12.1891 1.30133C11.1781 0.88254 10.0944 0.666992 9.00008 0.666992ZM9.00008 15.667C7.68154 15.667 6.39261 15.276 5.29628 14.5435C4.19996 13.8109 3.34547 12.7697 2.84089 11.5515C2.3363 10.3334 2.20428 8.99293 2.46152 7.69972C2.71875 6.40652 3.35369 5.21863 4.28604 4.28628C5.21839 3.35393 6.40628 2.71899 7.69948 2.46176C8.99269 2.20452 10.3331 2.33654 11.5513 2.84113C12.7695 3.34571 13.8107 4.2002 14.5432 5.29652C15.2758 6.39285 15.6668 7.68178 15.6668 9.00033C15.6668 10.7684 14.9644 12.4641 13.7141 13.7144C12.4639 14.9646 10.7682 15.667 9.00008 15.667Z" fill="#8E97A3"/>
<path d="M12.3334 8.16699H9.83342V5.66699C9.83342 5.44598 9.74562 5.23402 9.58934 5.07774C9.43306 4.92146 9.2211 4.83366 9.00008 4.83366C8.77907 4.83366 8.56711 4.92146 8.41083 5.07774C8.25455 5.23402 8.16675 5.44598 8.16675 5.66699V9.00033C8.16675 9.22134 8.25455 9.4333 8.41083 9.58958C8.56711 9.74586 8.77907 9.83366 9.00008 9.83366H12.3334C12.5544 9.83366 12.7664 9.74586 12.9227 9.58958C13.079 9.4333 13.1668 9.22134 13.1668 9.00033C13.1668 8.77931 13.079 8.56735 12.9227 8.41107C12.7664 8.25479 12.5544 8.16699 12.3334 8.16699Z" fill="#8E97A3"/>
</svg>
