<svg width="14" height="10" viewBox="0 0 14 10" fill="none" xmlns="http://www.w3.org/2000/svg">
<path d="M13.5804 4.66626C13.1537 3.92626 10.807 0.212922 6.82037 0.332922C3.1337 0.426256 1.00037 3.66626 0.420371 4.66626C0.361859 4.7676 0.331055 4.88256 0.331055 4.99959C0.331055 5.11661 0.361859 5.23158 0.420371 5.33292C0.840371 6.05959 3.08704 9.66626 7.0137 9.66626H7.18037C10.867 9.57292 13.007 6.33292 13.5804 5.33292C13.6389 5.23158 13.6697 5.11661 13.6697 4.99959C13.6697 4.88256 13.6389 4.7676 13.5804 4.66626ZM7.14704 8.33292C4.2737 8.39959 2.40037 5.93959 1.8137 4.99959C2.48037 3.92626 4.22037 1.73292 6.88704 1.66626C9.74704 1.59292 11.627 4.05959 12.2204 4.99959C11.5337 6.07292 9.8137 8.26626 7.14704 8.33292Z" fill="#1689CA"/>
<path d="M7.00037 2.66626C6.53888 2.66626 6.08775 2.8031 5.70404 3.05949C5.32033 3.31588 5.02126 3.6803 4.84465 4.10666C4.66805 4.53302 4.62184 5.00218 4.71187 5.4548C4.8019 5.90742 5.02413 6.32318 5.35045 6.6495C5.67678 6.97583 6.09254 7.19806 6.54516 7.28809C6.99778 7.37812 7.46694 7.33191 7.8933 7.15531C8.31966 6.9787 8.68408 6.67963 8.94047 6.29592C9.19686 5.9122 9.3337 5.46108 9.3337 4.99959C9.3337 4.38075 9.08787 3.78726 8.65029 3.34967C8.2127 2.91209 7.61921 2.66626 7.00037 2.66626ZM7.00037 5.99959C6.80259 5.99959 6.60925 5.94094 6.4448 5.83106C6.28035 5.72118 6.15218 5.565 6.07649 5.38227C6.0008 5.19955 5.981 4.99848 6.01959 4.8045C6.05817 4.61052 6.15341 4.43233 6.29326 4.29248C6.43312 4.15263 6.6113 4.05739 6.80528 4.0188C6.99926 3.98022 7.20033 4.00002 7.38305 4.07571C7.56578 4.1514 7.72196 4.27957 7.83184 4.44402C7.94172 4.60847 8.00037 4.80181 8.00037 4.99959C8.00037 5.26481 7.89501 5.51916 7.70748 5.7067C7.51994 5.89423 7.26559 5.99959 7.00037 5.99959Z" fill="#1689CA"/>
</svg>
