<svg width="200" height="163" viewBox="0 0 200 163" fill="none" xmlns="http://www.w3.org/2000/svg">
<path d="M156.852 162.832H102.316L102.305 162.526L99.7014 88.0908H159.466L156.852 162.832ZM102.928 162.199H156.24L158.811 88.7238H100.357L102.928 162.199Z" fill="#1B2A3D"/>
<path d="M115.325 101.882H111.177V153.186H115.325V101.882Z" fill="#1B2A3D"/>
<path d="M131.658 101.882H127.51V153.186H131.658V101.882Z" fill="#1B2A3D"/>
<path d="M147.99 101.882H143.842V153.186H147.99V101.882Z" fill="#1B2A3D"/>
<path d="M194.124 109.948L193.857 109.779L126.116 66.9924L131.992 57.6992L132.26 57.8683L200 100.654L194.124 109.948ZM126.99 66.7955L193.927 109.074L199.126 100.851L132.189 58.5724L126.99 66.7955Z" fill="#1B2A3D"/>
<path d="M177.765 63.544C175.796 62.2985 173.511 61.6438 171.181 61.6574C168.851 61.6711 166.573 62.3526 164.619 63.6211C162.665 64.8896 161.116 66.6919 160.155 68.814C159.195 70.9361 158.864 73.2889 159.202 75.5933L162.432 77.6335C161.62 75.7497 161.433 73.6556 161.898 71.6579C162.364 69.6602 163.456 67.8637 165.017 66.5317C166.577 65.1996 168.524 64.4018 170.571 64.2552C172.618 64.1086 174.658 64.6208 176.392 65.7168C178.127 66.8128 179.465 68.4351 180.21 70.3461C180.956 72.2572 181.069 74.3565 180.535 76.3368C180 78.317 178.845 80.0742 177.239 81.351C175.633 82.6278 173.66 83.3571 171.609 83.4322L174.839 85.4724C177.067 84.7889 179.052 83.481 180.558 81.7039C182.064 79.9268 183.029 77.7552 183.337 75.4466C183.645 73.1381 183.285 70.7896 182.297 68.6798C181.31 66.5701 179.738 64.7876 177.768 63.544H177.765Z" fill="#1B2A3D"/>
<path d="M199.9 162.367H0.079834V163H199.9V162.367Z" fill="#1B2A3D"/>
<path d="M34.2921 158.075H29.68L27.4849 140.296H34.2933L34.2921 158.075Z" fill="#FFD1D1"/>
<path d="M20.7854 162.355H35.2798V156.758H26.3079C24.8432 156.758 23.4386 157.339 22.4029 158.374C21.3672 159.41 20.7854 160.813 20.7854 162.277V162.355Z" fill="#1B2A3D"/>
<path d="M32.6709 130.525L35.8522 133.862L50.2456 123.187L45.5506 118.262L32.6709 130.525Z" fill="#FFD1D1"/>
<path d="M39.1296 135.392L32.9389 128.899L28.8845 132.761L38.8857 143.25L38.9418 143.196C39.4669 142.696 39.8883 142.098 40.1819 141.435C40.4755 140.772 40.6356 140.058 40.653 139.333C40.6704 138.608 40.5449 137.887 40.2835 137.211C40.0221 136.535 39.63 135.916 39.1296 135.392V135.392Z" fill="#1B2A3D"/>
<path d="M0.570051 81.815C0.278172 81.3457 0.0927822 80.8181 0.0269291 80.2694C-0.0389241 79.7207 0.0163547 79.1643 0.18889 78.6393C0.361424 78.1143 0.647015 77.6334 1.02555 77.2306C1.40408 76.8278 1.86636 76.5128 2.37984 76.3079L20.4869 30.1846L27.5449 34.4083L7.43045 78.6557C7.71789 79.5409 7.6704 80.5008 7.297 81.3534C6.9236 82.2059 6.25023 82.892 5.40451 83.2814C4.5588 83.6709 3.59952 83.7368 2.70847 83.4665C1.81743 83.1962 1.05655 82.6086 0.570051 81.815Z" fill="#FFD1D1"/>
<path d="M69.2983 85.1217C68.7466 85.0822 68.2102 84.9224 67.727 84.6533C67.2439 84.3843 66.8256 84.0126 66.5017 83.5644C66.1778 83.1163 65.9562 82.6026 65.8525 82.0596C65.7487 81.5166 65.7654 80.9575 65.9013 80.4216L39.1887 38.6844L46.7544 35.4561L70.7696 77.7167C71.6564 78.0032 72.4071 78.6053 72.8791 79.4085C73.3512 80.2117 73.5117 81.1602 73.3302 82.0739C73.1487 82.9877 72.6378 83.8029 71.8945 84.365C71.1513 84.9271 70.2274 85.1968 69.2983 85.1229V85.1217Z" fill="#FFD1D1"/>
<path d="M20.6653 77.1967L25.3935 147.433L36.693 146.437L39.0193 94.6181L45.3338 116.873L58.9596 117.869L53.5663 73.875L20.6653 77.1967Z" fill="#1B2A3D"/>
<path d="M47.3275 113.552L45.3325 116.873L31.3757 126.506L41.3459 131.821C41.3459 131.821 60.6214 121.192 58.9598 117.87L47.3275 113.552Z" fill="#1B2A3D"/>
<path d="M10.77 48.7797L14.7034 37.7021C15.5785 35.2372 16.934 32.9704 18.6915 31.0326C20.449 29.0948 22.5735 27.5247 24.9421 26.413C30.2659 24.4527 36.0562 24.1359 41.5623 25.5036L42.9937 25.8588C46.8106 26.7834 50.3868 28.5097 53.4845 30.9228C55.9083 32.8326 58.0889 35.2507 58.283 37.8518C58.284 37.8573 58.2856 37.8627 58.2877 37.8679C58.9591 40.8089 59.2913 56.0881 59.2913 56.0881H53.3695L54.3062 76.6822L54.2305 76.5331C54.2305 76.5331 20.0755 82.9933 20.0755 79.6716V58.4126L19.3753 50.7152L10.77 48.7797Z" fill="#E3E5E9"/>
<path d="M42.6511 22.6241C47.8785 22.6241 52.1161 18.3887 52.1161 13.1641C52.1161 7.93949 47.8785 3.7041 42.6511 3.7041C37.4237 3.7041 33.186 7.93949 33.186 13.1641C33.186 18.3887 37.4237 22.6241 42.6511 22.6241Z" fill="#FFD1D1"/>
<path d="M44.0683 8.92182L51.4177 9.21617C52.3423 9.21332 53.3519 9.18072 54.0562 8.58316C55.117 7.68143 54.9394 5.97991 54.3713 4.70882C52.7879 1.16967 49.256 -0.0982512 45.3778 0.0058789C41.4995 0.110009 37.4356 1.42382 35.3471 4.69015C33.2587 7.95648 32.6943 12.0812 33.481 15.8767C34.3904 13.9467 35.7903 12.2889 37.5412 11.0687C39.292 9.84857 41.3324 9.10874 43.4587 8.92308L44.0683 8.92182Z" fill="#1B2A3D"/>
<path d="M87.7107 101.455L61.1097 82.821C60.8625 82.6471 60.6944 82.3825 60.642 82.085C60.5897 81.7875 60.6574 81.4815 60.8304 81.2338L81.709 51.4593C81.883 51.2123 82.1477 51.0442 82.4454 50.9919C82.743 50.9396 83.0493 51.0072 83.2971 51.1801L109.898 69.8137C110.145 69.9875 110.313 70.2521 110.366 70.5496C110.418 70.8471 110.35 71.1532 110.177 71.4009L89.2993 101.175C89.1255 101.422 88.8607 101.59 88.5629 101.643C88.2651 101.695 87.9586 101.628 87.7107 101.455Z" fill="#1689CA"/>
<path d="M95.7981 72.0898L82.9476 63.2711C82.7668 63.1448 82.6128 62.984 82.4943 62.7982C82.3757 62.6123 82.295 62.4048 82.2567 62.1878C82.2184 61.9707 82.2233 61.7482 82.2711 61.533C82.3188 61.3178 82.4086 61.1141 82.5352 60.9336C82.6618 60.753 82.8227 60.5992 83.0088 60.4809C83.1949 60.3626 83.4025 60.2821 83.6197 60.244C83.837 60.2059 84.0596 60.211 84.2749 60.2589C84.4901 60.3069 84.6938 60.3967 84.8743 60.5234L97.7249 69.3421C98.0895 69.5974 98.3376 69.9871 98.4147 70.4253C98.4918 70.8635 98.3916 71.3144 98.1361 71.6788C97.8806 72.0432 97.4907 72.2912 97.0523 72.3682C96.6138 72.4453 96.1627 72.3451 95.7981 72.0898Z" fill="#FAFAFA"/>
<rect width="23.6115" height="1.55262" rx="0.776312" transform="matrix(0.824214 0.566278 -0.566534 0.824038 80.4446 63.9404)" fill="white"/>
<rect width="23.6115" height="1.55262" rx="0.776312" transform="matrix(0.824214 0.566279 -0.566534 0.824038 78.9585 66.1016)" fill="white"/>
<rect width="23.6115" height="1.55262" rx="0.776311" transform="matrix(0.824214 0.566278 -0.566534 0.824038 77.4727 68.2627)" fill="white"/>
<rect width="23.6115" height="1.55262" rx="0.776312" transform="matrix(0.824214 0.566278 -0.566534 0.824038 75.9868 70.4238)" fill="white"/>
<rect width="23.6115" height="1.55262" rx="0.776312" transform="matrix(0.824214 0.566278 -0.566534 0.824038 74.501 72.5859)" fill="white"/>
<rect width="23.6115" height="1.55262" rx="0.776312" transform="matrix(0.824214 0.566278 -0.566534 0.824038 73.0149 74.7471)" fill="white"/>
<rect width="23.6115" height="1.55262" rx="0.776312" transform="matrix(0.824214 0.566279 -0.566534 0.824039 71.5291 76.9082)" fill="white"/>
</svg>
