<svg width="28" height="28" viewBox="0 0 28 28" fill="none" xmlns="http://www.w3.org/2000/svg">
<rect width="28" height="28" rx="14" fill="#BA876A"/>
<path d="M10.24 5.19141L12.7713 7.98438L10.3013 19.1172C10.2196 19.3255 10.1652 19.472 10.138 19.5566C10.1107 19.6413 10.1073 19.7357 10.1278 19.8398C10.1482 19.944 10.206 20.0417 10.3013 20.1328L13.4858 23.7852C13.6219 23.9284 13.7954 24 14.0064 24C14.2173 24 14.3976 23.9284 14.5473 23.7852L17.7115 20.1328C17.8475 19.9635 17.9122 19.8236 17.9054 19.7129C17.8986 19.6022 17.8339 19.4036 17.7115 19.1172L15.2414 7.96484L17.7523 5.19141C17.9292 5.03516 17.9734 4.79753 17.885 4.47852C17.7965 4.15951 17.6026 4 17.3032 4H10.6687C10.3693 4 10.1822 4.15951 10.1073 4.47852C10.0325 4.79753 10.0767 5.03516 10.24 5.19141Z" fill="white"/>
</svg>
