<svg width="28" height="28" viewBox="0 0 28 28" fill="none" xmlns="http://www.w3.org/2000/svg">
<rect width="28" height="28" rx="14" fill="#DD6868"/>
<path d="M20.5808 4.83398H11.3176C10.2958 4.83398 9.46493 5.65623 9.46493 6.66732V11.7878L5.10471 16.1026C4.9752 16.2308 4.88701 16.3941 4.85128 16.5719C4.81556 16.7497 4.8339 16.9339 4.904 17.1014C4.97409 17.2689 5.09279 17.412 5.24509 17.5128C5.39739 17.6135 5.57644 17.6673 5.75962 17.6673V22.2506C5.75962 22.4938 5.85722 22.7269 6.03094 22.8988C6.20466 23.0707 6.44027 23.1673 6.68595 23.1673H21.5072C21.7528 23.1673 21.9885 23.0707 22.1622 22.8988C22.3359 22.7269 22.4335 22.4938 22.4335 22.2506V6.66732C22.4335 5.65623 21.6026 4.83398 20.5808 4.83398ZM13.1702 20.334C13.1702 20.8863 12.7225 21.334 12.1702 21.334H8.61228C8.05999 21.334 7.61228 20.8863 7.61228 20.334V16.4221C7.61228 16.2886 7.66568 16.1606 7.76058 16.0667L10.1099 13.7419C10.2658 13.5877 10.5167 13.5877 10.6726 13.7419L13.0219 16.0667C13.1168 16.1606 13.1702 16.2886 13.1702 16.4221V20.334ZM20.5808 20.334C20.5808 20.8863 20.1331 21.334 19.5808 21.334H16.0229C15.4706 21.334 15.0229 20.8863 15.0229 20.334V17.6673C15.2063 17.6677 15.3856 17.6142 15.5382 17.5135C15.6908 17.4129 15.8097 17.2696 15.8799 17.102C15.9501 16.9343 15.9683 16.7498 15.9323 16.5719C15.8964 16.3939 15.8078 16.2306 15.6778 16.1026L11.3176 11.7878V7.66732C11.3176 7.11503 11.7653 6.66732 12.3176 6.66732H19.5808C20.1331 6.66732 20.5808 7.11503 20.5808 7.66732V20.334Z" fill="white"/>
<path d="M13.2604 8.90065C13.2604 8.67974 13.4394 8.50065 13.6604 8.50065H14.767C14.9879 8.50065 15.167 8.67974 15.167 8.90065V9.96732C15.167 10.1882 14.9879 10.3673 14.767 10.3673H13.6604C13.4394 10.3673 13.2604 10.1882 13.2604 9.96732V8.90065ZM17.0737 8.90065C17.0737 8.67974 17.2528 8.50065 17.4737 8.50065H18.5804C18.8013 8.50065 18.9804 8.67974 18.9804 8.90065V9.96732C18.9804 10.1882 18.8013 10.3673 18.5804 10.3673H17.4737C17.2528 10.3673 17.0737 10.1882 17.0737 9.96732V8.90065ZM17.0737 12.6629C17.0737 12.442 17.2528 12.2629 17.4737 12.2629H18.5804C18.8013 12.2629 18.9804 12.442 18.9804 12.6629V13.7007C18.9804 13.9216 18.8013 14.1006 18.5804 14.1006H17.4737C17.2528 14.1006 17.0737 13.9216 17.0737 13.7007V12.6629ZM17.0737 16.3673C17.0737 16.1464 17.2528 15.9673 17.4737 15.9673H18.5804C18.8013 15.9673 18.9804 16.1464 18.9804 16.3673V17.434C18.9804 17.6549 18.8013 17.834 18.5804 17.834H17.4737C17.2528 17.834 17.0737 17.6549 17.0737 17.434V16.3673ZM9.44703 17.3007C9.44703 17.0797 9.62611 16.9007 9.84703 16.9007H10.9537C11.1746 16.9007 11.3537 17.0797 11.3537 17.3007V18.3673C11.3537 18.5882 11.1746 18.7673 10.9537 18.7673H9.84703C9.62611 18.7673 9.44703 18.5882 9.44703 18.3673V17.3007Z" fill="white"/>
</svg>
