<svg width="28" height="28" viewBox="0 0 28 28" fill="none" xmlns="http://www.w3.org/2000/svg">
<rect width="28" height="28" rx="14" fill="#10A3B7"/>
<path d="M20.4453 6.92969C20.4453 5.31426 19.1311 4 17.5156 4C15.9002 4 14.5859 5.31426 14.5859 6.92969C14.5859 8.54512 15.9002 9.85938 17.5156 9.85938C19.1311 9.85938 20.4453 8.54512 20.4453 6.92969ZM17.5156 8.6875C16.5464 8.6875 15.7578 7.89895 15.7578 6.92969C15.7578 5.96043 16.5464 5.17188 17.5156 5.17188C18.4849 5.17188 19.2734 5.96043 19.2734 6.92969C19.2734 7.89895 18.4849 8.6875 17.5156 8.6875Z" fill="white"/>
<path d="M6.38281 23.4141C6.38281 23.7377 6.64516 24 6.96875 24H21.0312C21.3548 24 21.6172 23.7377 21.6172 23.4141V18.0586C22.3527 17.0793 22.7891 15.8631 22.7891 14.5469C22.7891 11.9622 20.6862 9.85938 18.1016 9.85938H15.1719C14.7221 9.85938 14.3112 10.0292 14 10.308C13.6888 10.0292 13.2779 9.85938 12.8281 9.85938H9.89844C7.31375 9.85938 5.21094 11.9622 5.21094 14.5469C5.21094 15.8631 5.6473 17.0793 6.38281 18.0586V23.4141ZM7.55469 19.2314C8.53465 19.9687 9.7523 20.4062 11.0703 20.4062V22.8281H7.55469V19.2314ZM13.4141 18.6484C13.4141 17.9503 13.005 17.346 12.4139 17.0625C12.52 16.9564 12.6665 16.8906 12.8281 16.8906H15.1719C15.3335 16.8906 15.48 16.9564 15.5861 17.0625C14.995 17.346 14.5859 17.9503 14.5859 18.6484C14.5859 19.4123 15.0758 20.0636 15.7578 20.3055V22.8281H12.2422V20.3055C12.9242 20.0636 13.4141 19.4123 13.4141 18.6484ZM16.9297 22.8281V20.4062C18.2477 20.4062 19.4654 19.9687 20.4453 19.2314V22.8281H16.9297ZM14 12.2031C14.6462 12.2031 15.1719 12.7288 15.1719 13.375C15.1719 14.0212 14.6462 14.5469 14 14.5469C13.3538 14.5469 12.8281 14.0212 12.8281 13.375C12.8281 12.7288 13.3538 12.2031 14 12.2031ZM9.89844 11.0312H12.8281C12.972 11.0312 13.1038 11.0836 13.2059 11.17C12.3032 11.4961 11.6562 12.3613 11.6562 13.375C11.6562 14.6673 12.7077 15.7188 14 15.7188C15.2923 15.7188 16.3438 14.6673 16.3438 13.375C16.3438 12.3613 15.6968 11.4961 14.7941 11.17C14.8962 11.0836 15.028 11.0312 15.1719 11.0312H18.1016C20.0401 11.0312 21.6172 12.6084 21.6172 14.5469C21.6172 17.1316 19.5144 19.2344 16.9297 19.2344H16.3438C16.0207 19.2344 15.7578 18.9715 15.7578 18.6484C15.7578 18.3254 16.0207 18.0625 16.3438 18.0625H16.9297C18.8682 18.0625 20.4453 16.4854 20.4453 14.5469C20.4453 14.2233 20.183 13.9609 19.8594 13.9609C19.5358 13.9609 19.2734 14.2233 19.2734 14.5469C19.2734 15.8392 18.222 16.8906 16.9297 16.8906H16.8289C16.587 16.2086 15.9357 15.7188 15.1719 15.7188H12.8281C12.0643 15.7188 11.413 16.2086 11.1711 16.8906H11.0703C9.77797 16.8906 8.72656 15.8392 8.72656 14.5469C8.72656 14.2233 8.46422 13.9609 8.14062 13.9609C7.81703 13.9609 7.55469 14.2233 7.55469 14.5469C7.55469 16.4854 9.1318 18.0625 11.0703 18.0625H11.6562C11.9793 18.0625 12.2422 18.3254 12.2422 18.6484C12.2422 18.9715 11.9793 19.2344 11.6562 19.2344H11.0703C8.48563 19.2344 6.38281 17.1316 6.38281 14.5469C6.38281 12.6084 7.95992 11.0312 9.89844 11.0312Z" fill="white"/>
<path d="M13.4141 6.92969C13.4141 5.31426 12.0998 4 10.4844 4C8.86895 4 7.55469 5.31426 7.55469 6.92969C7.55469 8.54512 8.86895 9.85938 10.4844 9.85938C12.0998 9.85938 13.4141 8.54512 13.4141 6.92969ZM10.4844 8.6875C9.51512 8.6875 8.72656 7.89895 8.72656 6.92969C8.72656 5.96043 9.51512 5.17188 10.4844 5.17188C11.4536 5.17188 12.2422 5.96043 12.2422 6.92969C12.2422 7.89895 11.4536 8.6875 10.4844 8.6875Z" fill="white"/>
</svg>
