<svg width="28" height="28" viewBox="0 0 28 28" fill="none" xmlns="http://www.w3.org/2000/svg">
<rect width="28" height="28" rx="14" fill="#6B7DDC"/>
<path d="M4 19.1326C4 18.7275 4.32832 18.3992 4.73333 18.3992H23.2667C23.6717 18.3992 24 18.7275 24 19.1326C24 19.5376 23.6717 19.8659 23.2667 19.8659H4.73333C4.32833 19.8659 4 19.5376 4 19.1326Z" fill="white"/>
<path d="M4 22.0659C4 21.6609 4.32832 21.3326 4.73333 21.3326H23.2667C23.6717 21.3326 24 21.6609 24 22.0659C24 22.4709 23.6717 22.7992 23.2667 22.7992H4.73333C4.32832 22.7992 4 22.4709 4 22.0659Z" fill="white"/>
<path d="M19.7143 9.59922C19.4317 9.59922 19.1555 9.68524 18.9206 9.8464C18.6857 10.0076 18.5026 10.2366 18.3945 10.5046C18.2863 10.7726 18.258 11.0675 18.3132 11.352C18.3683 11.6365 18.5043 11.8979 18.7041 12.103C18.9039 12.3081 19.1585 12.4478 19.4356 12.5044C19.7127 12.561 19.9999 12.5319 20.261 12.4209C20.522 12.3099 20.7451 12.1219 20.9021 11.8807C21.0591 11.6395 21.1429 11.356 21.1429 11.0659C21.1429 10.6769 20.9923 10.3038 20.7244 10.0288C20.4565 9.75374 20.0932 9.59922 19.7143 9.59922Z" fill="white"/>
<path d="M14 13.9992C13.4349 13.9992 12.8825 13.8272 12.4127 13.5049C11.9428 13.1825 11.5766 12.7244 11.3603 12.1884C11.1441 11.6524 11.0875 11.0626 11.1978 10.4936C11.308 9.92461 11.5801 9.40194 11.9797 8.99171C12.3793 8.58147 12.8884 8.3021 13.4426 8.18892C13.9968 8.07573 14.5713 8.13382 15.0934 8.35584C15.6155 8.57786 16.0617 8.95383 16.3756 9.43621C16.6896 9.9186 16.8571 10.4857 16.8571 11.0659C16.8562 11.8436 16.5549 12.5891 16.0193 13.139C15.4836 13.6889 14.7575 13.9982 14 13.9992ZM14 9.59922C13.7175 9.59922 13.4413 9.68524 13.2063 9.8464C12.9714 10.0076 12.7883 10.2366 12.6802 10.5046C12.572 10.7726 12.5438 11.0675 12.5989 11.352C12.654 11.6365 12.7901 11.8979 12.9898 12.103C13.1896 12.3081 13.4442 12.4478 13.7213 12.5044C13.9984 12.561 14.2857 12.5319 14.5467 12.4209C14.8077 12.3099 15.0308 12.1219 15.1878 11.8807C15.3448 11.6395 15.4286 11.356 15.4286 11.0659C15.4282 10.677 15.2776 10.3042 15.0097 10.0292C14.7419 9.75426 14.3788 9.59961 14 9.59922Z" fill="white"/>
<path d="M8.28571 9.59922C8.00317 9.59922 7.72697 9.68524 7.49204 9.8464C7.25712 10.0076 7.07401 10.2366 6.96589 10.5046C6.85776 10.7726 6.82947 11.0675 6.88459 11.352C6.93971 11.6365 7.07577 11.8979 7.27556 12.103C7.47535 12.3081 7.7299 12.4478 8.00701 12.5044C8.28413 12.561 8.57137 12.5319 8.8324 12.4209C9.09344 12.3099 9.31655 12.1219 9.47353 11.8807C9.6305 11.6395 9.71429 11.356 9.71429 11.0659C9.71429 10.6769 9.56378 10.3038 9.29587 10.0288C9.02796 9.75374 8.66459 9.59922 8.28571 9.59922Z" fill="white"/>
<path d="M22.5714 16.9326H5.42857C5.04998 16.9316 4.68717 16.7768 4.41946 16.5019C4.15176 16.2271 4.00094 15.8546 4 15.4659V6.66589C4.00094 6.2772 4.15176 5.90471 4.41946 5.62986C4.68717 5.35502 5.04998 5.20019 5.42857 5.19922H22.5714C22.95 5.20019 23.3128 5.35502 23.5805 5.62986C23.8482 5.90471 23.9991 6.2772 24 6.66589V15.4659C23.9994 15.8547 23.8487 16.2274 23.581 16.5023C23.3132 16.7773 22.9501 16.932 22.5714 16.9326ZM22.5714 7.66589C22.5714 7.1136 22.1237 6.66589 21.5714 6.66589H6.42857C5.87628 6.66589 5.42857 7.1136 5.42857 7.66589V14.4659C5.42857 15.0182 5.87629 15.4659 6.42857 15.4659H21.5714C22.1237 15.4659 22.5714 15.0182 22.5714 14.4659V7.66589Z" fill="white"/>
</svg>
