<svg width="28" height="28" viewBox="0 0 28 28" fill="none" xmlns="http://www.w3.org/2000/svg">
<rect width="28" height="28" rx="14" fill="#9D9655"/>
<path d="M23.2616 15.3938C23.3496 16.9364 22.6555 18.4193 21.414 19.3249L22.1667 20.8078C22.3916 21.2556 22.4209 21.7831 22.2254 22.2508C22.0397 22.7186 21.6584 23.0868 21.1892 23.246L20.4169 23.4948C20.0954 23.6051 19.7482 23.6117 19.4228 23.5138C19.0974 23.4158 18.8096 23.2181 18.5987 22.9475L16.5263 20.4594C15.6563 20.3102 14.8352 19.932 14.1411 19.3647C13.6523 19.514 13.1636 19.5936 12.6748 19.5936C11.8146 19.5936 10.9543 19.3249 10.2309 18.8074C9.71284 18.9666 9.18497 19.0363 8.64732 19.0263C7.87506 19.0363 7.11258 18.8771 6.39897 18.5785C5.71209 18.2665 5.12517 17.7642 4.70516 17.129C4.28515 16.4937 4.04897 15.7511 4.02354 14.9858C3.94534 14.2692 4.06264 13.5427 4.36568 12.8859C4.08219 12.1395 4.05287 11.3234 4.29725 10.5671C4.65894 9.62163 5.34322 8.83541 6.19369 8.33781C6.76066 6.65591 8.35406 5.53132 10.1039 5.65075C11.6679 4.15794 14.0629 3.9987 15.8029 5.28252C16.2135 5.17305 16.6436 5.11334 17.0737 5.11334C18.4032 5.08348 19.6642 5.6806 20.4951 6.74548C22.4893 7.27294 23.9165 9.08421 23.9947 11.1941C24.0436 12.2987 23.7504 13.3835 23.1541 14.3091C23.2225 14.6673 23.2616 15.0256 23.2616 15.3938ZM18.3739 13.9906C18.9311 14.0603 19.371 14.4882 19.371 15.0555C19.371 15.3194 19.268 15.5725 19.0847 15.7592C18.9013 15.9458 18.6527 16.0507 18.3934 16.0507H17.7776C17.4648 16.9464 16.9173 17.7326 16.194 18.3297C16.4383 18.4193 16.6925 18.469 16.9467 18.5387C21.9615 18.469 21.3749 15.354 21.3749 15.3043C21.349 14.6207 21.0574 13.9755 20.5642 13.5108C20.0711 13.0461 19.4168 12.7998 18.7453 12.8262C18.4861 12.8262 18.2374 12.7213 18.0541 12.5347C17.8708 12.3481 17.7678 12.0949 17.7678 11.831C17.7678 11.567 17.8708 11.3139 18.0541 11.1273C18.2374 10.9406 18.4861 10.8358 18.7453 10.8358C19.9477 10.8656 21.1012 11.3234 22.0006 12.1296C22.0494 11.8409 22.0788 11.5424 22.0788 11.2438C22.0201 10.0098 21.4727 8.93493 19.2732 8.72594C18.0513 5.78012 14.972 7.41227 14.972 8.32786C14.9427 8.55676 15.1773 9.04441 15.2164 9.07426C15.4757 9.07426 15.7243 9.17911 15.9076 9.36575C16.091 9.55239 16.194 9.80553 16.194 10.0695C16.194 10.6168 15.7541 11.0647 15.2164 11.0647C14.6983 11.0448 14.2095 10.8457 13.8185 10.5074C13.3493 10.8159 12.8117 11.005 12.2545 11.0647C11.6973 11.1144 11.2378 10.7164 11.2085 10.169C11.1905 10.039 11.1988 9.90661 11.2328 9.77999C11.2669 9.65336 11.326 9.53516 11.4066 9.43264C11.4871 9.33012 11.5874 9.24545 11.7013 9.18382C11.8151 9.12219 11.9402 9.08491 12.0687 9.07426C12.2251 9.05436 12.9876 8.93493 12.9876 8.30795C12.9876 7.65112 13.232 7.02413 13.6523 6.52653C12.753 6.27773 11.7852 6.60615 10.8077 7.81035C9.00901 7.52174 8.27585 7.77054 7.7382 9.7112C6.80954 10.1789 6.32077 10.5074 6.10571 11.5026C7.16145 11.2836 8.24653 11.3732 9.2534 11.7514C9.74217 11.9405 10.0159 12.4978 9.83015 13.0352C9.64441 13.5527 9.07744 13.8115 8.56912 13.6224C7.85551 13.3039 7.05392 13.284 6.32077 13.5627C6.00795 13.8314 6.00795 14.3887 6.00795 14.8266C6.00795 15.563 6.36964 16.2497 6.9855 16.6478C7.50359 16.9165 8.08034 17.0558 8.65709 17.0459C8.51046 16.7871 8.38338 16.5184 8.27585 16.2398C8.1989 15.9841 8.22234 15.708 8.34125 15.4695C8.46016 15.231 8.66526 15.0488 8.91343 14.9612C9.1616 14.8735 9.43349 14.8872 9.67191 14.9995C9.91034 15.1117 10.0967 15.3137 10.1918 15.563C10.5829 16.6976 11.5799 17.4738 12.753 17.6032C14.0922 17.5335 15.2848 16.7274 15.8714 15.4834C16.0962 14.11 17.1813 13.9906 18.3739 13.9906ZM20.329 21.4248L19.7229 20.131L19.0288 20.2903L20.0064 21.5343L20.329 21.4248ZM15.7834 12.8561C15.7919 12.6018 15.7044 12.3539 15.539 12.1633C15.3736 11.9726 15.1427 11.8537 14.8938 11.831C14.1998 11.7912 13.5253 12.03 13.0072 12.4978C12.45 13.075 12.1567 13.8712 12.186 14.6773C12.186 14.9412 12.289 15.1944 12.4723 15.381C12.6557 15.5676 12.9043 15.6725 13.1636 15.6725C13.7208 15.6725 14.1411 15.2246 14.1411 14.6773C14.1411 14.4086 14.2095 14.1399 14.3659 13.9209C14.4833 13.8214 14.6299 13.7716 14.7863 13.7716C15.3239 13.8015 15.7834 13.3935 15.7834 12.8561Z" fill="white"/>
</svg>
