<svg width="28" height="28" viewBox="0 0 28 28" fill="none" xmlns="http://www.w3.org/2000/svg">
<rect width="28" height="28" rx="14" fill="#CC6181"/>
<path d="M17.3352 4C17.5878 4 17.8301 4.10035 18.0087 4.27896C18.1873 4.45758 18.2877 4.69984 18.2877 4.95244V5.90488H22.0502C22.6025 5.90488 23.0502 6.35259 23.0502 6.90488V10.6195C23.0502 11.1718 22.6025 11.6195 22.0502 11.6195H21.4127C21.2739 11.6195 21.1773 11.7575 21.2248 11.8879L23.7427 18.8047C23.9301 19.2883 24.0167 19.805 23.9973 20.3232C23.978 20.8415 23.853 21.3503 23.6301 21.8186C23.4071 22.2868 23.091 22.7046 22.7009 23.0464C22.3108 23.3881 21.8551 23.6467 21.3615 23.8062C20.868 23.9656 20.3472 24.0227 19.8308 23.9738C19.3145 23.9249 18.8136 23.7711 18.3588 23.5219C17.904 23.2726 17.5048 22.9332 17.1858 22.5243C16.9462 22.2171 16.7556 21.8756 16.62 21.5119C16.5405 21.2988 16.3449 21.1439 16.1175 21.1439H12.8396C12.6117 21.1439 12.4159 21.2993 12.3367 21.513C12.0835 22.1961 11.6386 22.7952 11.0517 23.236C10.3612 23.7546 9.51514 24.0234 8.65196 23.9984C7.78877 23.9734 6.95965 23.6561 6.30037 23.0984C5.64109 22.5407 5.19071 21.7757 5.023 20.9286C4.71432 20.7674 4.45574 20.5247 4.27538 20.2268C4.09502 19.9289 3.99978 19.5872 4 19.239V9.71463C4 9.46203 4.10035 9.21977 4.27898 9.04115C4.45761 8.86254 4.69989 8.76219 4.95251 8.76219H11.6201C11.8727 8.76219 12.115 8.86254 12.2936 9.04115C12.4722 9.21977 12.5726 9.46203 12.5726 9.71463V14.4768C12.5726 14.7294 12.673 14.9717 12.8516 15.1503C13.0302 15.3289 13.2725 15.4293 13.5251 15.4293H15.4301C15.6828 15.4293 15.925 15.3289 16.1037 15.1503C16.2823 14.9717 16.3826 14.7294 16.3826 14.4768V5.90488H14.4775C13.9515 5.90488 13.5251 5.47846 13.5251 4.95244C13.5251 4.42642 13.9515 4 14.4775 4H17.3352ZM8.76255 18.2866C8.25731 18.2866 7.77276 18.4873 7.4155 18.8445C7.05824 19.2017 6.85753 19.6862 6.85753 20.1914C6.85753 20.6967 7.05824 21.1812 7.4155 21.5384C7.77276 21.8956 8.25731 22.0963 8.76255 22.0963C9.2678 22.0963 9.75235 21.8956 10.1096 21.5384C10.4669 21.1812 10.6676 20.6967 10.6676 20.1914C10.6676 19.6862 10.4669 19.2017 10.1096 18.8445C9.75235 18.4873 9.2678 18.2866 8.76255 18.2866ZM20.1927 18.2856C19.7876 18.2857 19.393 18.415 19.0664 18.6546C18.7398 18.8942 18.498 19.2317 18.3763 19.6181C18.2545 20.0044 18.2592 20.4196 18.3894 20.8031C18.5197 21.1867 18.7689 21.5187 19.1008 21.751C19.4327 21.9833 19.83 22.1038 20.235 22.0949C20.64 22.086 21.0317 21.9483 21.3531 21.7017C21.6744 21.455 21.9088 21.1124 22.0222 20.7235C22.1355 20.3346 22.122 19.9197 21.9834 19.539L21.9682 19.4971C21.8284 19.1401 21.5842 18.8336 21.2674 18.6176C20.9507 18.4016 20.5761 18.2863 20.1927 18.2866V18.2856ZM19.2146 11.934C19.1459 11.7452 18.9664 11.6195 18.7655 11.6195C18.5016 11.6195 18.2877 11.8334 18.2877 12.0974V14.4768C18.2877 15.2346 17.9866 15.9614 17.4507 16.4972C16.9148 17.0331 16.188 17.3341 15.4301 17.3341H13.5251C12.7672 17.3341 12.0404 17.0331 11.5045 16.4972C11.2073 16.2 10.9822 15.844 10.8408 15.4566C10.6514 14.9378 10.2199 14.4768 9.66758 14.4768H6.90502C6.35274 14.4768 5.90502 14.9245 5.90502 15.4768V17.1427C5.90502 17.3269 6.14138 17.4205 6.28124 17.3006C6.66951 16.9677 7.12223 16.7152 7.6133 16.56C8.27304 16.3514 8.9771 16.3264 9.65 16.4875C10.3229 16.6486 10.9392 16.9898 11.433 17.4746C11.8343 17.8686 12.1424 18.3454 12.3367 18.8699C12.4159 19.0836 12.6117 19.239 12.8396 19.239H16.1155C16.3434 19.239 16.5393 19.0835 16.6184 18.8697C16.9039 18.0984 17.4329 17.4365 18.1303 16.9877C18.8393 16.5314 19.6766 16.3248 20.5105 16.3944C20.6639 16.4072 20.788 16.2581 20.7353 16.1135L19.2146 11.934ZM10.6676 10.6671H5.90502V12.5719H10.6676V10.6671ZM21.1452 8.30975C21.1452 8.03361 20.9213 7.80975 20.6452 7.80975H18.7877C18.5115 7.80975 18.2877 8.03361 18.2877 8.30975V9.21463C18.2877 9.49077 18.5115 9.71463 18.7877 9.71463H20.6452C20.9213 9.71463 21.1452 9.49077 21.1452 9.21463V8.30975Z" fill="white"/>
</svg>
