<svg width="28" height="28" viewBox="0 0 28 28" fill="none" xmlns="http://www.w3.org/2000/svg">
<rect width="28" height="28" rx="14" fill="#20A58D"/>
<path d="M10.2342 11.1175C10.4909 10.7208 10.6406 10.2488 10.6406 9.74219C10.6406 8.34215 9.5016 7.20312 8.10156 7.20312C6.70152 7.20312 5.5625 8.34215 5.5625 9.74219C5.5625 10.2488 5.71223 10.7208 5.96891 11.1175C4.86801 11.2091 4 12.1337 4 13.2578V16.3828C4 17.2861 4.68484 18.0324 5.5625 18.1298V22.6328C5.5625 23.3867 6.17582 24 6.92969 24H9.27344C10.0273 24 10.6406 23.3867 10.6406 22.6328V18.1298C11.5183 18.0324 12.2031 17.2861 12.2031 16.3828V13.2578C12.2031 12.1337 11.3351 11.2091 10.2342 11.1175ZM8.10156 8.375C8.85543 8.375 9.46875 8.98832 9.46875 9.74219C9.46875 10.4961 8.85543 11.1094 8.10156 11.1094C7.3477 11.1094 6.73438 10.4961 6.73438 9.74219C6.73438 8.98832 7.3477 8.375 8.10156 8.375ZM11.0313 16.3828C11.0313 16.7059 10.7684 16.9688 10.4453 16.9688H10.0547C9.73109 16.9688 9.46875 17.2311 9.46875 17.5547V22.6328C9.46875 22.7405 9.38113 22.8281 9.27344 22.8281H6.92969C6.82199 22.8281 6.73438 22.7405 6.73438 22.6328V17.5547C6.73438 17.2311 6.47203 16.9688 6.14844 16.9688H5.75781C5.43473 16.9688 5.17188 16.7059 5.17188 16.3828V13.2578C5.17188 12.7193 5.60996 12.2812 6.14844 12.2812H10.0547C10.5932 12.2812 11.0313 12.7193 11.0313 13.2578V16.3828Z" fill="white"/>
<path d="M16.7835 4.63645C16.3731 4.22602 15.8274 4 15.247 4C14.7943 4 14.3628 4.13746 14.0002 4.39266C13.6375 4.13746 13.206 4 12.7533 4C12.1729 4 11.6272 4.22602 11.2168 4.63645C10.8064 5.04684 10.5804 5.5925 10.5804 6.17293C10.5804 6.75332 10.8064 7.29898 11.2168 7.70937L13.5858 10.0784C13.7002 10.1928 13.8502 10.25 14.0002 10.25C14.1501 10.25 14.3001 10.1928 14.4145 10.0784L16.7835 7.70937C17.6307 6.86215 17.6307 5.48363 16.7835 4.63645ZM15.9549 6.88074L14.0002 8.83543L12.0455 6.88074C11.8564 6.69168 11.7523 6.44031 11.7523 6.17293C11.7523 5.90551 11.8564 5.65414 12.0455 5.46508C12.2345 5.27598 12.486 5.17188 12.7533 5.17188C13.0207 5.17188 13.2721 5.27598 13.4612 5.46512L13.5859 5.58977C13.8147 5.81852 14.1856 5.81855 14.4144 5.5898L14.5392 5.46508C14.7283 5.27598 14.9796 5.17188 15.247 5.17188C15.5144 5.17188 15.7658 5.27602 15.9549 5.46508C16.3451 5.85539 16.3451 6.49043 15.9549 6.88074Z" fill="white"/>
<path d="M23.992 18.6302L23.0921 13.231C22.9594 12.4346 22.4704 11.7802 21.8039 11.4176C22.1978 10.9702 22.4375 10.3838 22.4375 9.74219C22.4375 8.34215 21.2984 7.20312 19.8984 7.20312C18.4984 7.20312 17.3593 8.34215 17.3593 9.74219C17.3593 10.3838 17.599 10.9702 17.993 11.4176C17.3264 11.7802 16.8374 12.4347 16.7047 13.2311L15.8049 18.6303C15.7765 18.8002 15.8244 18.9739 15.9358 19.1053C16.0471 19.2367 16.2106 19.3125 16.3828 19.3125H17.4061L17.752 23.4627C17.7773 23.7664 18.0311 24 18.3359 24H21.4609C21.7657 24 22.0195 23.7664 22.0448 23.4627L22.3907 19.3125H23.414C23.5863 19.3125 23.7498 19.2367 23.8611 19.1053C23.9724 18.9738 24.0203 18.8001 23.992 18.6302ZM19.8984 8.375C20.6523 8.375 21.2656 8.98832 21.2656 9.74219C21.2656 10.4961 20.6523 11.1094 19.8984 11.1094C19.1445 11.1094 18.5312 10.4961 18.5312 9.74219C18.5312 8.98832 19.1445 8.375 19.8984 8.375ZM21.8515 18.1406C21.5468 18.1406 21.2929 18.3742 21.2676 18.6779L20.9218 22.8281H18.875L18.5292 18.6779C18.5039 18.3742 18.25 18.1406 17.9453 18.1406H17.0745L17.8606 13.4237C17.9709 12.7617 18.5381 12.2812 19.2092 12.2812H20.5876C21.2587 12.2812 21.8258 12.7617 21.9361 13.4237L22.7224 18.1406H21.8515Z" fill="white"/>
</svg>
