<svg width="28" height="28" viewBox="0 0 28 28" fill="none" xmlns="http://www.w3.org/2000/svg">
<rect width="28" height="28" rx="14" fill="#9E64CC"/>
<path d="M14.1399 4.00093C8.51611 3.92497 3.92497 8.51589 4.00093 14.1394C4.07593 19.5326 8.46755 23.9241 13.8611 23.999C19.4858 24.076 24.076 19.4851 23.999 13.8615C23.925 8.46734 19.5334 4.07592 14.1399 4.00093ZM13.963 11.3132C13.9731 11.2555 13.9841 11.1978 13.9971 11.1406C14.1185 10.5792 14.3891 10.0609 14.7802 9.6403C15.3999 8.98027 16.2782 8.61588 17.2537 8.61588C17.6641 8.61419 18.0717 8.68348 18.4584 8.82067C18.9392 8.99184 19.3722 9.27531 19.7214 9.64751C20.235 10.2027 20.5407 10.9184 20.5867 11.6733C20.6 11.8557 20.6 12.0389 20.5867 12.2213C20.5497 12.7383 20.416 13.2438 20.1925 13.7116C20.1681 13.7625 20.1427 13.813 20.1161 13.863C20.0627 13.9625 20.0055 14.0601 19.9439 14.1543C19.8215 14.3424 19.6826 14.5194 19.5291 14.6831C18.8983 15.3561 18.0907 15.7277 17.2546 15.7277C16.9412 15.7275 16.6298 15.6759 16.3331 15.5748C16.2334 15.541 16.1355 15.502 16.0398 15.458C15.6391 15.2711 15.2787 15.0079 14.9788 14.6831C14.3544 14.0059 13.9811 13.1351 13.9211 12.216C13.9125 12.0917 13.9096 11.9686 13.9125 11.8468C13.9162 11.6683 13.9331 11.4893 13.963 11.3132ZM6.76474 12.4833C6.78814 12.1403 6.87281 11.8042 7.01473 11.4911C7.05477 11.4039 7.09938 11.3188 7.14838 11.2363C7.24638 11.0709 7.3623 10.9168 7.49404 10.7767C7.68919 10.5686 7.91642 10.3929 8.16708 10.2566C8.29228 10.1882 8.42264 10.1297 8.55697 10.0816C9.07171 9.90158 9.62511 9.86193 10.1603 9.96671C10.7273 10.0764 11.2452 10.3624 11.64 10.7839C12.1085 11.2896 12.3725 11.9512 12.3808 12.6405C12.3832 12.7419 12.3808 12.8438 12.3736 12.9472C12.3443 13.343 12.2467 13.7307 12.0852 14.0932C12.0078 14.2678 11.9157 14.4354 11.8097 14.5942C11.6059 14.9021 11.3494 15.1718 11.052 15.3907C10.9799 15.4422 10.9049 15.4902 10.8275 15.5383C10.6753 15.629 10.5142 15.7039 10.3468 15.7618C10.0964 15.8493 9.83318 15.8942 9.56798 15.8945C9.52327 15.8945 9.47856 15.8945 9.43433 15.8907C9.34601 15.8858 9.25805 15.8759 9.17088 15.8609C9.08415 15.8458 8.9983 15.826 8.91368 15.8017C8.78658 15.765 8.66251 15.7186 8.54255 15.6628C8.50216 15.6441 8.46274 15.6244 8.42332 15.6037C7.55798 15.1475 6.9056 14.2019 6.77772 13.0982C6.77196 13.0477 6.76715 12.9972 6.76378 12.9462C6.75293 12.7921 6.75325 12.6374 6.76474 12.4833ZM9.35693 21.069C8.07692 20.2254 7.0482 19.052 6.37918 17.6727C6.35734 17.6286 6.35323 17.5778 6.36772 17.5308C6.38221 17.4837 6.41419 17.444 6.45707 17.4199C7.35029 16.9175 8.49111 16.644 9.56894 16.644C10.3862 16.644 11.0448 16.7401 11.6213 16.9266C11.6866 16.9481 11.745 16.9868 11.7903 17.0385C11.8356 17.0903 11.8663 17.1532 11.879 17.2208C11.8917 17.2885 11.886 17.3582 11.8626 17.4229C11.8392 17.4876 11.7988 17.5448 11.7458 17.5886C10.6232 18.502 9.8997 19.6336 9.55981 20.9897C9.55472 21.0105 9.54472 21.0297 9.53065 21.0457C9.51658 21.0618 9.49885 21.0743 9.47896 21.082C9.45907 21.0898 9.4376 21.0927 9.41636 21.0904C9.39512 21.0882 9.37474 21.0808 9.35693 21.069ZM14.0005 22.4607C12.9181 22.4618 11.8457 22.2542 10.842 21.8492C10.8009 21.8323 10.767 21.8017 10.746 21.7626C10.725 21.7236 10.7181 21.6784 10.7266 21.6348C10.7458 21.5363 10.767 21.4464 10.7857 21.3714C11.128 20.0047 11.976 18.8716 13.2375 18.0938C14.3572 17.404 15.7855 17.0242 17.2527 17.0242C18.7507 17.0242 20.1372 17.3886 21.266 18.0775C21.2947 18.0955 21.3154 18.1239 21.3235 18.1569C21.3317 18.1898 21.3268 18.2246 21.3097 18.2539C20.5653 19.5327 19.4987 20.5941 18.2163 21.3322C16.9338 22.0703 15.4802 22.4594 14.0005 22.4607Z" fill="white"/>
<path d="M6.77869 13.0957C6.90656 14.2014 7.56038 15.1451 8.42428 15.6013C7.55846 15.1451 6.90656 14.1995 6.77869 13.0957Z" fill="white"/>
<path d="M13.9207 12.2213C13.912 12.097 13.9091 11.9739 13.912 11.8521C13.9091 11.9723 13.912 12.0954 13.9207 12.2213Z" fill="white"/>
</svg>
